<svg t="1670218768829" class="icon" viewBox="0 0 1024 1024" version="1.1" xmlns="http://www.w3.org/2000/svg" p-id="5010" width="128" height="128"><path d="M0 143.872a143.872 143.872 0 0 0 143.872 143.872h40.192v592.384A143.872 143.872 0 0 0 327.936 1024h552.192A143.872 143.872 0 0 0 1024 880.128v-143.872h-122.624V143.872A143.872 143.872 0 0 0 757.504 0h-614.4A143.872 143.872 0 0 0 0 143.872z m143.872-40.192a40.192 40.192 0 0 1 40.192 40.192v40.192H143.872a40.192 40.192 0 0 1 0-80.384z m327.936 776.448v-40.192H921.6v40.192A40.192 40.192 0 0 1 880.128 921.6H465.92a142.592 142.592 0 0 0 5.888-41.472z m-102.4-143.872v143.872a40.192 40.192 0 1 1-80.384 0V143.872A142.592 142.592 0 0 0 281.6 103.68h475.904a40.192 40.192 0 0 1 40.192 40.192v592.384z" p-id="5011"></path><path d="M691.2 268.8l-43.776-45.056a10.752 10.752 0 0 0-14.592 0l-73.216 73.216a9.984 9.984 0 0 1-14.336 0l-73.216-73.216a10.752 10.752 0 0 0-14.592 0l-45.056 45.056a10.24 10.24 0 0 0 0 14.336l39.936 39.936h-36.864a10.24 10.24 0 0 0-10.24 10.24v63.744a10.24 10.24 0 0 0 10.24 10.24h84.736a10.24 10.24 0 0 1 10.24 10.24v30.208a10.24 10.24 0 0 1-10.24 10.24h-63.744a10.24 10.24 0 0 0-10.24 10.24v63.488a9.984 9.984 0 0 0 10.24 10.24h63.744a10.24 10.24 0 0 1 10.24 10.24v63.744a10.24 10.24 0 0 0 10.24 10.24h63.488a10.24 10.24 0 0 0 10.24-10.24v-63.744a10.24 10.24 0 0 1 10.24-10.24h63.744a9.984 9.984 0 0 0 10.24-10.24v-63.488a10.24 10.24 0 0 0-10.24-10.24h-63.744a10.24 10.24 0 0 1-10.24-10.24v-30.208a10.24 10.24 0 0 1 10.24-10.24h84.736a10.24 10.24 0 0 0 10.24-10.24V332.8a10.24 10.24 0 0 0-10.24-10.24h-36.864L691.2 283.136a9.984 9.984 0 0 0 0-14.336z" p-id="5012"></path></svg>