<svg t="1670219321360" class="icon" viewBox="0 0 1024 1024" version="1.1" xmlns="http://www.w3.org/2000/svg" p-id="15681" width="128" height="128"><path d="M319.968 270.944c3.936 0 7.872 0 11.84-3.968 55.36-39.52 114.592-59.264 181.792-59.264 15.84 0 27.68 0 39.552 3.936 7.872 0 19.744-3.936 19.744-15.808 0-7.904-3.968-19.744-15.776-19.744-15.84-3.968-27.68-3.968-47.424-3.968-71.2 0-142.272 23.712-201.568 67.168-4 3.968-7.936 11.872-4 19.776s7.936 11.872 15.84 11.872z m375.424-3.968c3.968 3.968 7.808 3.968 11.872 3.968 7.84 0 15.744-3.968 15.744-11.872 3.968-7.904 0-15.808-7.904-19.776-31.584-23.712-67.264-39.52-110.624-51.36-3.936 0-11.84 0-15.808 3.968-3.936 3.936-7.904 11.872-3.936 15.808 0 3.936 7.904 11.84 11.84 11.84 39.52 11.84 71.104 23.712 98.816 47.424z m-399.168 0c-3.968-7.904-15.776-7.904-23.68 0a349.504 349.504 0 0 0-110.656 256.896v7.904c0 7.872 7.936 15.84 15.808 15.84s15.84-7.968 15.84-15.84v-7.904c0-86.976 35.552-173.888 102.72-233.184 7.872-3.968 7.872-15.808-0.032-23.712z m169.952 27.68c11.84 0 15.776-11.872 11.84-19.744-3.936-7.936-11.84-15.84-19.744-11.872h-3.968c-19.744 3.936-83.008 23.712-130.432 75.104-3.936 3.968-3.936 11.84-3.936 19.744 3.936 7.936 7.872 11.872 15.808 11.872 3.904 0 7.872-3.968 11.84-3.968 39.552-43.488 94.88-59.296 114.624-63.232l3.968-7.904zM205.344 666.144c3.936 0 3.936 0 7.904-3.936 47.424-27.712 55.328-86.912 67.2-146.272 7.904-39.52 11.84-79.072 31.616-102.784 3.936-7.872 3.936-19.712-3.968-23.68-11.872-3.936-23.712 0-27.648 7.936-19.744 31.616-27.68 75.072-35.584 118.56-7.904 51.424-15.808 102.688-47.424 122.528-7.904 3.936-11.872 11.872-7.904 19.776 0 3.936 7.872 7.872 15.808 7.872z m35.552 82.944c3.968 0 7.936 0 7.936-3.936 94.816-67.136 106.688-150.176 114.592-217.344 7.904-55.328 11.872-102.752 63.232-126.464 3.936-3.936 7.936-7.904 7.936-15.776 0-7.936-4-11.872-7.936-15.84-3.968-3.968-11.872-3.968-15.776 0-67.232 35.552-75.072 94.816-83.008 154.112-7.872 67.2-15.776 134.4-98.784 193.632-7.968 4-7.968 11.904-7.968 19.808a21.824 21.824 0 0 0 19.776 11.808z m229.216-367.488s86.976-27.68 150.144 35.552c3.936 3.968 7.904 3.968 11.872 3.968 7.936 0 11.904-3.968 15.712-11.84 4.096-7.936 0-11.872-3.808-19.776-79.136-79.04-181.856-47.392-185.792-43.488-3.968 0-11.872 7.936-11.872 11.872 0 7.936 0 11.872 4 15.84 7.904 7.872 11.84 7.872 19.744 7.872z" p-id="15682"></path><path d="M426.656 962.496C213.248 919.072 59.136 733.344 59.136 515.968c0-248.992 205.504-454.496 454.464-454.496 213.408 0 403.136 154.112 446.656 363.584 3.936 15.808 19.776 27.712 35.52 23.712 15.808-3.968 27.68-19.744 23.744-35.616C972.096 176.064 758.656 2.176 517.568 2.176A512.736 512.736 0 0 0 3.776 515.936c0 245.024 173.92 458.432 415.008 505.856h3.936c15.776 0 27.68-7.84 27.68-23.744 3.904-15.776-7.904-31.52-23.744-35.552z" p-id="15683"></path><path d="M857.44 476.416c-11.872-79.008-47.392-154.112-106.688-209.44-7.904-7.904-15.84-7.904-23.744 0-7.904 7.936-7.904 15.808 0 23.712 51.36 47.456 86.912 114.624 98.784 185.76h31.648v-0.032z m122.56 39.552H517.568V974.4c0 15.776 11.84 31.648 31.616 31.648 252.928 0 458.432-205.536 458.432-458.432 0-15.872-11.872-31.648-27.616-31.648z m-403.2 430.752V579.2H944.32c-11.84 193.632-169.92 351.68-367.52 367.52z m162.08-470.304h35.52c-7.904-47.392-27.616-82.976-47.392-106.688-63.168-90.88-166.016-114.592-217.344-110.656-7.936 0-11.872 3.968-15.84 7.904-3.968 3.968-3.968 11.872 0 15.808 3.968 3.968 7.904 7.904 15.84 7.904 35.552-3.936 130.432 15.808 185.76 98.816 23.68 23.648 35.552 55.296 43.456 86.912z m-86.912 0h35.52c-7.904-27.648-19.808-43.488-19.808-47.392-3.84-7.936-15.712-11.872-23.616-4-7.968 4-11.904 15.808-7.968 23.712 4 0.032 7.968 11.936 15.872 27.68z" p-id="15684"></path><path d="M600.576 476.416c-15.808-31.616-51.36-51.36-90.912-51.36-51.392 0-90.88 43.488-98.784 86.944v7.936c0 169.952-126.464 256.896-126.464 260.8-3.968 0-3.968 7.84-3.968 15.84 3.968 7.84 7.904 11.808 15.776 11.808 3.968 0 7.936 0 7.936-3.968 3.968-3.904 138.336-98.784 142.24-284.512 0-23.712 27.68-63.232 63.264-63.232 15.776 0 35.552 7.904 47.424 19.744h43.488z m-201.6 367.584c23.712-15.84 51.392-55.424 79.04-106.72v-86.944c-27.648 75.072-71.136 146.208-98.784 165.952-7.936 3.968-7.936 11.872-7.936 19.712 4 8 7.936 11.872 15.84 11.872s7.904 0 11.84-3.872z m59.296 15.744c3.968 7.936 7.936 11.872 15.808 11.872h3.936v-47.424c-3.936 8-11.84 11.808-15.808 19.808-3.936 0-3.936 7.84-3.936 15.744z" p-id="15685"></path></svg>