<?xml version="1.0" standalone="no"?><!DOCTYPE svg PUBLIC "-//W3C//DTD SVG 1.1//EN" "http://www.w3.org/Graphics/SVG/1.1/DTD/svg11.dtd"><svg t="1670218477351" class="icon" viewBox="0 0 1024 1024" version="1.1" xmlns="http://www.w3.org/2000/svg" p-id="2728" width="128" height="128" xmlns:xlink="http://www.w3.org/1999/xlink"><path d="M688 512c-32 0.64-58.496 11.52-79.488 32.512s-31.829333 47.530667-32.512 79.488c0.64 32 11.52 58.496 32.512 79.488s47.530667 31.829333 79.488 32.512H896V896H128V352h768V512h-208z m32 160h-32a49.152 49.152 0 0 1-33.493333-14.506667 45.482667 45.482667 0 0 1-13.525334-33.493333c0-13.354667 4.522667-24.490667 13.525334-33.493333 8.96-9.002667 20.181333-13.866667 33.493333-14.506667h32c13.354667 0.64 24.490667 5.504 33.493333 14.506667 9.002667 8.96 13.525333 20.181333 13.525334 33.493333 0 13.354667-4.522667 24.490667-13.525334 33.493333a49.152 49.152 0 0 1-33.493333 14.506667zM640 128l128 160H384L640 128z" p-id="2729"></path></svg>