<svg t="1670218586762" class="icon" viewBox="0 0 1024 1024" version="1.1" xmlns="http://www.w3.org/2000/svg" p-id="2949" width="128" height="128"><path d="M640 633.181091v6.818909H674.909091v23.272727h-34.909091v46.545455h-23.272727v-46.545455H581.818182v-23.272727h34.909091v-23.272727H581.818182v-23.272728h18.455273L570.181818 563.362909l16.453818-16.453818L628.363636 588.637091l41.728-41.728 16.453819 16.453818-30.091637 30.091636H674.909091v23.272728h-34.909091v16.453818zM465.454545 442.181818v-46.545454h23.272728v46.545454h46.545454v23.272727h-46.545454v46.545455h-23.272728v-46.545455h-46.545454v-23.272727h46.545454z m232.727273 23.272727h-23.272727v-93.090909c-52.596364-9.681455-84.782545-40.494545-93.090909-93.090909h-46.545455v-23.272727h69.818182c0 58.112 34.978909 93.090909 93.090909 93.090909v116.363636z m-209.454545 289.861819c-14.359273 8.215273-23.272727 12.683636-23.272728 12.683636s-209.454545-116.247273-209.454545-256v-162.909091c58.112 0 93.090909-34.978909 93.090909-93.090909h209.454546v23.272727h-186.181819c-9.681455 52.596364-40.494545 84.782545-93.090909 93.090909v139.636364c0 93.090909 116.363636 186.181818 186.181818 228.072727 7.098182-4.258909 14.941091-9.076364 23.272728-14.336v29.579637zM512 0l442.181818 256v512L512 1024 69.818182 768V256L512 0z m0 28.276364L93.090909 270.149818v483.700364l418.909091 241.873454 418.909091-241.873454V270.149818L512 28.276364zM628.363636 768a139.636364 139.636364 0 1 1 0-279.272727 139.636364 139.636364 0 0 1 0 279.272727z m0-23.272727a116.363636 116.363636 0 1 0 0-232.727273 116.363636 116.363636 0 0 0 0 232.727273z" p-id="2950"></path></svg>