<svg t="1670219149527" class="icon" viewBox="0 0 1024 1024" version="1.1" xmlns="http://www.w3.org/2000/svg" p-id="11795" width="128" height="128"><path d="M201.415426 899.491973l38.360701-4.136968c0.830994 10.725916 2.52098 18.898852 5.07396 24.515809 4.151968 9.093929 10.086921 13.637893 17.800861 13.637893 5.754955 0 10.19092-2.321982 13.306896-6.971946 3.114976-4.646964 4.672963-10.036922 4.672964-16.165873 0-5.821955-1.483988-11.031914-4.449966-15.628878-2.968977-4.596964-9.850923-8.93793-20.648838-13.023898-17.683862-6.842947-30.292763-15.935876-37.827705-27.273787-7.595941-11.338911-11.392911-25.792798-11.392911-43.362662 0-11.54291 1.942985-22.447825 5.829955-32.713744 3.88597-10.26692 9.729924-18.334857 17.533863-24.210811 7.801939-5.871954 18.497855-8.810931 32.086749-8.810931 16.67287 0 29.38577 5.339958 38.138702 16.012875 8.751932 10.675917 13.957891 27.656784 15.619878 50.947602l-38.004703 3.83097c-1.009992-10.112921-3.130976-17.468864-6.36395-22.064828-3.233975-4.596964-7.69894-6.894946-13.395896-6.894946-4.687963 0-8.218936 1.710987-10.591917 5.13296-2.373981 3.423973-3.559972 7.584941-3.559972 12.487903 0 3.575972 0.978992 6.793947 2.936977 9.652924 1.897985 2.963977 6.40795 5.721955 13.528894 8.273935 17.622862 6.537949 30.245764 13.152897 37.871704 19.842845 7.62394 6.690948 13.172897 14.991883 16.64387 24.898806 3.471973 9.908923 5.206959 20.991836 5.20696 33.24974 0 14.402887-2.313982 27.684784-6.941946 39.839689-4.627964 12.156905-11.096913 21.374833-19.402849 27.656784-8.307935 6.281951-18.779853 9.423926-31.418754 9.423926-22.192827 0-37.560707-7.354943-46.10464-22.064827-8.544933-14.709885-13.381895-33.402739-14.508887-56.080562zM330.918415 749.177147h122.560042v55.468567h-41.119679v169.161678h-40.319685V804.644714h-41.119678v-55.467567zM539.570785 936.725682h-45.774643l-6.35895 37.08071h-41.167678l49.041616-224.630245h43.979657l49.029617 224.630245H546.099734l-6.528949-37.08071z m-8.362935-48.572621l-14.401888-80.750369-14.251888 80.750369h28.653776zM601.315302 749.177147h99.685221v48.266623h-59.187537v39.226694h50.555605v45.354645h-50.555605v91.782283h-40.496684V749.177147zM722.896352 749.177147h99.685222v48.266623h-59.187538v39.226694h50.555605v45.354645h-50.555605v91.782283h-40.496684V749.177147z" p-id="11796"></path><path d="M137.756924 723.778345c0.349997-14.06289 0.644995-27.062789 0.766994-37.10771 5.854954-9.775924 19.830845-15.552878 45.376645-24.404809 8.97493-3.109976 18.261857-6.326951 27.584785-10.26392 15.909876-6.708948 32.499746-13.843892 49.245615-21.041835 24.971805-10.732916 50.779603-21.824829 74.704416-31.661753l32.621746-8.91193a35.523722 35.523722 0 0 0 10.820915-5.027961c13.252896-9.112929 23.533816-24.484809 32.856743-42.24067 0.817994-1.550988 1.602987-3.187975 2.403982-4.765963 0.443997-0.871993 0.880993-1.743986 1.315989-2.612979a607.918251 607.918251 0 0 0 7.858939-16.346873l1.603987-3.449973c2.229983-4.782963 3.292974-9.887923 3.301975-14.958883 0-0.104999 0.018-0.209998 0.017999-0.305998-0.009-1.350989-0.157999-2.683979-0.313997-4.016968-0.043-0.383997-0.035-0.767994-0.096999-1.149991-0.155999-1.044992-0.452996-2.072984-0.703995-3.100976-0.156999-0.644995-0.252998-1.30799-0.444996-1.943985-0.347997-1.141991-0.827994-2.247982-1.29799-3.353974-0.200998-0.488996-0.348997-1.001992-0.573996-1.488988a35.88772 35.88772 0 0 0-5.881954-8.773931c-37.368708-40.99568-61.565519-97.122241-67.028476-153.887798a255.492004 255.492004 0 0 1-1.175991-24.31681c0-19.098851 0.767994-36.611714 2.222983-52.668589 10.148921-112.422122 53.635581-153.5818 99.535222-167.731689 17.486863-5.392958 35.330724-6.865946 51.815595-6.865947 22.653823 0 47.887626 2.788978 71.236444 14.716885 44.574652 22.766822 82.319357 78.869384 82.319357 212.55034 0 44.409653-11.998906 89.698299-33.31874 128.888993-9.766924 17.94086-21.478832 34.60673-34.886728 49.315615a35.429723 35.429723 0 0 0-5.872954 8.764931 35.666721 35.666721 0 0 0-3.412973 14.742885c0 0.093999-0.019 0.189999-0.028 0.295998-0.009 1.077992 0.122999 2.159983 0.218998 3.239974 0.051 0.651995 0.035 1.30799 0.129999 1.952985 0.078999 0.529996 0.244998 1.061992 0.340998 1.593988 0.226998 1.183991 0.427997 2.376981 0.774994 3.553972 0.008 0.051 0.035 0.095999 0.051999 0.147999a35.666721 35.666721 0 0 0 1.811986 4.800962l1.595988 3.449973c12.624901 27.341786 25.527801 52.956586 44.435653 65.966485a35.715721 35.715721 0 0 0 10.821915 5.027961l32.629745 8.91193c20.632839 8.485934 42.648667 17.89586 64.344497 27.218787 3.501973 1.497988 7.013945 3.005977 10.488918 4.505965h0.011c16.68487 7.177944 33.22874 14.287888 49.103617 20.978836 9.313927 3.936969 18.602855 7.152944 27.585784 10.26392 25.5368 8.852931 39.512691 14.628886 45.376646 24.404809 0.113999 10.045922 0.417997 23.04582 0.758994 37.10771 0.191999 8.158936 0.395997 167.036695 0.573995 300.213655h79.464379c-0.204998-135.493941-0.598995-286.574761-0.964992-301.920641-0.417997-17.226865-0.792994-32.804744-0.792994-42.954665 0-3.963969-0.661995-7.894938-1.950985-11.640909-16.066874-46.553636-57.826548-61.025523-91.380286-72.647432-8.244936-2.857978-16.042875-5.559957-23.194818-8.581933-15.787877-6.665948-32.228748-13.731893-48.817619-20.858837-1.463989-0.627995-2.952977-1.26399-4.425965-1.898985-24.568808-10.567917-49.759611-21.380833-73.396427-31.062758a36.549714 36.549714 0 0 0-4.182967-1.418988l-25.772799-7.039945c-3.083976-4.260967-6.777947-11.040914-10.122921-17.679862 7.134944-9.155928 13.722893-18.749854 19.864845-28.647777 32.933743-53.052586 51.2406-115.775096 51.2406-178.996601 0-123.418036-30.582761-198.069453-73.990422-241.87811S563.316599 0 512.007 0h-0.01c-93.000273 0-202.18142 42.554668-221.828267 234.24617-2.038984 19.830845-3.110976 41.255678-3.110976 64.396497 0 4.687963 0.103999 9.374927 0.295998 14.05289 0.435997 10.167921 1.376989 20.301841 2.727979 30.382763 1.757986 13.095898 4.242967 26.084796 7.501941 38.867696 2.168983 8.537933 4.704963 16.972867 7.517941 25.311802 0.165999 0.496996 0.304998 0.992992 0.478997 1.489989 0.470996 1.358989 1.001992 2.701979 1.480988 4.059968 12.058906 33.727737 29.274771 65.477488 51.101601 93.48027-0.322997 0.636995-0.652995 1.26399-0.975993 1.899985-0.591995 1.139991-1.176991 2.290982-1.777986 3.415973-0.269998 0.496996-0.529996 0.974992-0.800993 1.461989a185.179553 185.179553 0 0 1-2.151984 3.85297 103.189194 103.189194 0 0 1-1.375989 2.334981c-0.139999 0.241998-0.287998 0.487996-0.435996 0.730995a74.636417 74.636417 0 0 1-2.256983 3.440973l0.027 0.01c-0.121999 0.163999-0.252998 0.382997-0.365997 0.539995l-25.772799 7.030946c-1.429989 0.391997-2.823978 0.861993-4.181967 1.418988-25.041804 10.26492-51.876595 21.80883-77.840392 32.961743-16.58987 7.126944-33.022742 14.192889-48.810619 20.858837-7.161944 3.021976-14.950883 5.723955-23.193818 8.581933-33.561738 11.621909-75.313412 26.094796-91.380287 72.647432a35.742721 35.742721 0 0 0-1.951984 11.640909c0 10.149921-0.382997 25.728799-0.800994 42.954665-0.366997 15.34588-0.760994 166.4267-0.964992 301.920641h64.035499c0.177999-133.17696 0.377997-292.054718 0.570996-300.213655z" p-id="11797"></path></svg>