<svg t="1670502549586" class="icon" viewBox="0 0 1024 1024" version="1.1" xmlns="http://www.w3.org/2000/svg" p-id="4120" width="128" height="128"><path d="M81.16 412.073333L0 709.653333V138.666667a53.393333 53.393333 0 0 1 53.333333-53.333334h253.413334a52.986667 52.986667 0 0 1 37.713333 15.62l109.253333 109.253334a10.573333 10.573333 0 0 0 7.54 3.126666H842.666667a53.393333 53.393333 0 0 1 53.333333 53.333334v74.666666H173.773333a96.2 96.2 0 0 0-92.613333 70.74z m922-7.113333a52.933333 52.933333 0 0 0-42.386667-20.96H173.773333a53.453333 53.453333 0 0 0-51.453333 39.333333L11.773333 828.666667a53.333333 53.333333 0 0 0 51.453334 67.333333h787a53.453333 53.453333 0 0 0 51.453333-39.333333l110.546667-405.333334a52.953333 52.953333 0 0 0-9.073334-46.373333z" fill="#5C5C66" p-id="4121"></path></svg>